<?xml version="1.0" encoding="UTF-8" standalone="no"?>
<svg
   viewBox="0 0 512 512"
   style="height: 512px; width: 512px;"
   version="1.1"
   id="svg6"
   sodipodi:docname="shopping-bag.svg"
   xml:space="preserve"
   inkscape:version="1.2.2 (b0a8486541, 2022-12-01)"
   xmlns:inkscape="http://www.inkscape.org/namespaces/inkscape"
   xmlns:sodipodi="http://sodipodi.sourceforge.net/DTD/sodipodi-0.dtd"
   xmlns="http://www.w3.org/2000/svg"
   xmlns:svg="http://www.w3.org/2000/svg"><defs
     id="defs10" /><sodipodi:namedview
     id="namedview8"
     pagecolor="#ffffff"
     bordercolor="#000000"
     borderopacity="0.25"
     inkscape:showpageshadow="2"
     inkscape:pageopacity="0.0"
     inkscape:pagecheckerboard="0"
     inkscape:deskcolor="#d1d1d1"
     showgrid="false"
     inkscape:zoom="0.84765625"
     inkscape:cx="-66.654378"
     inkscape:cy="254.23041"
     inkscape:window-width="1920"
     inkscape:window-height="1043"
     inkscape:window-x="0"
     inkscape:window-y="0"
     inkscape:window-maximized="1"
     inkscape:current-layer="svg6" /><g
     class=""
     transform="translate(0,0)"
     style=""
     id="g4"><path
       id="path2"
       d="M 256 23 C 221.00003 23 193.9992 40.920961 176.69922 64.710938 C 164.79923 81.090921 157.1 100.20002 153.5 119 L 172 119 C 175.4 103.80002 181.90079 88.22905 191.30078 75.289062 C 206.00077 55.079083 227.00003 41 256 41 C 284.99997 41 305.99923 55.079083 320.69922 75.289062 C 330.09921 88.22905 336.6 103.80002 340 119 L 358.5 119 C 354.9 100.20002 347.20077 81.090921 335.30078 64.710938 C 318.0008 40.920961 290.99997 23 256 23 z M 88.25 137 L 57.810547 487 L 454.19922 487 L 423.80078 137 L 88.25 137 z M 160 160 A 16 16 0 0 1 176 176 A 16 16 0 0 1 160 192 A 16 16 0 0 1 144 176 A 16 16 0 0 1 160 160 z M 352 160 A 16 16 0 0 1 368 176 A 16 16 0 0 1 352 192 A 16 16 0 0 1 336 176 A 16 16 0 0 1 352 160 z M 187.73242 214.28906 L 197.38672 217.45703 C 229.0996 227.87992 257.08385 246.10359 279.8457 269.25586 C 307.55084 261.08903 332.1343 248.9152 349.42188 231.36914 L 358.13672 222.5332 L 357.16797 234.91406 C 354.46283 269.55613 344.6541 306.20914 326.3418 339.01562 C 338.47805 367.83229 344.38958 399.01866 342.66406 429.96094 L 342.04297 441.10156 L 334.72266 432.67578 C 319.15525 414.75145 303.18336 400.93035 287.15039 389.52734 C 258.64023 416.16071 220.74251 435.40859 172.36523 440.96484 L 162.05859 442.14648 L 168.19727 433.78125 C 186.41064 408.94519 199.78976 377.69678 205.67578 343.91211 C 179.08705 330.13472 154.16857 315.14923 133.6875 290.125 L 127.17188 282.16797 L 137.44727 282.74609 C 159.25326 283.9556 183.3621 283.89483 207.61523 281.94141 C 205.33444 262.37401 200.24324 242.71595 191.82422 223.59375 L 187.73242 214.28906 z M 227.86328 245.96289 C 218.97191 245.94834 214.35244 253.25797 214.76758 268.13672 C 214.76958 268.14652 214.76658 268.15602 214.76758 268.16602 C 215.53624 272.4696 216.17676 276.7789 216.67773 281.07812 C 234.69955 279.26241 252.62554 276.35919 269.63086 272.04492 C 262.54067 265.16521 254.95488 258.78308 246.92773 252.98047 C 239.30163 248.33158 232.89238 245.97189 227.86328 245.96289 z M 316.64258 268.60547 C 313.16684 268.67191 309.3118 269.23775 305.13867 270.30273 C 299.26235 272.71737 293.20066 274.9119 286.98438 276.88086 C 300.91549 292.46281 312.5998 309.96079 321.62695 328.65039 C 327.11386 318.05777 331.7211 307.08246 335.49414 295.92969 C 339.42867 277.24105 331.51162 268.32274 316.64258 268.60547 z M 277.20703 279.74414 C 270.19103 281.67237 263.02457 283.34097 255.76367 284.79102 C 244.17445 287.68625 230.27787 290.6575 217.78516 294.125 C 218.63095 309.27678 217.89523 324.2795 215.7832 338.88086 C 221.25605 341.66892 226.67006 344.43651 232.33203 347.29102 C 241.62592 351.97724 251.13612 356.8695 260.76367 362.2793 C 260.80056 362.2957 260.83519 362.30967 260.87109 362.32617 C 269.41717 366.21172 280.12565 370.5212 290.36133 373.48047 C 294.31477 369.22731 298.07241 364.82431 301.5918 360.26562 C 306.92304 353.35681 311.76236 346.12325 316.14258 338.65234 C 306.55286 317.17662 293.3695 297.12046 277.20703 279.74414 z M 257.88477 295.58203 C 260.7606 295.59028 263.96474 296.17181 267.44922 297.44727 C 283.37695 303.27316 297.01562 322.13594 297.01562 337.5918 C 297.01562 345.32022 294.11702 350.32298 289.66602 353.14062 C 285.21499 355.95828 278.71606 356.72178 270.75195 353.80859 C 254.82374 347.98319 241.16992 329.10235 241.16992 313.64648 C 241.16992 305.91807 244.069 300.91531 248.51953 298.09766 C 250.74504 296.68884 253.49244 295.78933 256.67188 295.61328 C 257.06955 295.59178 257.47401 295.58106 257.88477 295.58203 z M 208.79688 296.80859 C 186.52967 304.01373 173.06116 313.4427 195.29297 328.05859 C 199.18045 330.24967 203.14221 332.37671 207.16016 334.48438 C 208.76543 322.14879 209.36428 309.5409 208.79688 296.81055 L 208.79688 296.80859 z M 214.17773 348.23047 C 213.52546 351.71641 212.79724 355.17041 211.99414 358.59766 C 213.31421 394.2669 237.0586 408.66872 269.3418 392.92188 C 272.85052 390.15274 276.24004 387.28332 279.49609 384.30078 C 262.28417 372.85509 245.05304 363.86197 228.24219 355.38477 C 223.48224 352.98418 218.86347 350.60196 214.17773 348.23047 z M 320.44531 348.97266 C 316.82456 354.73405 312.95472 360.37553 308.75977 365.81055 C 306.08955 369.27078 303.28764 372.64165 300.36523 375.93359 C 315.29151 378.8012 326.94687 376.94239 325.46094 363.6582 C 323.9716 358.71204 322.30661 353.81261 320.44531 348.97266 z " /></g></svg>
